<?xml version="1.0" standalone="no"?>
<!DOCTYPE svg PUBLIC "-//W3C//DTD SVG 20010904//EN"
 "http://www.w3.org/TR/2001/REC-SVG-20010904/DTD/svg10.dtd">
<svg version="1.0" xmlns="http://www.w3.org/2000/svg"
 width="500.000000pt" height="500.000000pt" viewBox="0 0 500.000000 500.000000"
 preserveAspectRatio="xMidYMid meet">
<metadata>
Created by potrace 1.14, written by Peter Selinger 2001-2017
</metadata>
<g transform="translate(0.000000,500.000000) scale(0.100000,-0.100000)"
fill="#000000" stroke="none">
<path d="M1375 3448 c-6 -16 -215 -1009 -215 -1020 0 -4 256 -8 570 -8 l569 0
17 -36 c26 -54 83 -87 159 -92 99 -6 175 29 211 99 l15 29 569 0 c536 0 570 1
570 18 0 9 -49 242 -108 517 -104 483 -108 500 -131 503 -23 4 -23 2 -18 -45
3 -26 30 -194 60 -373 31 -179 61 -361 67 -405 6 -44 13 -92 16 -107 l6 -28
-117 0 c-136 0 -283 26 -390 70 -38 16 -109 45 -158 65 -142 59 -258 58 -384
-2 -55 -26 -134 -94 -165 -143 l-15 -25 -65 67 c-75 78 -160 123 -262 141 -87
15 -155 1 -284 -57 -187 -84 -327 -116 -509 -116 -111 0 -113 0 -113 23 0 12
16 110 34 217 134 767 128 720 96 720 -11 0 -23 -6 -25 -12z"/>
<path d="M3503 2180 c-55 -22 -67 -102 -20 -135 51 -36 127 0 127 60 0 57 -54
95 -107 75z"/>
<path d="M1105 2137 c-3 -7 -4 -123 -3 -257 l3 -245 68 -3 c57 -2 67 0 67 14
0 13 3 14 14 5 47 -40 130 -29 182 23 58 58 68 197 20 269 -47 69 -123 95
-186 62 l-30 -16 0 81 0 80 -65 0 c-44 0 -67 -4 -70 -13z m219 -253 c24 -23
21 -99 -4 -124 -11 -11 -24 -20 -28 -20 -22 0 -44 30 -49 68 -10 71 40 118 81
76z"/>
<path d="M2345 2137 c-3 -7 -4 -123 -3 -257 l3 -245 68 -3 67 -3 0 54 c0 38 6
62 18 77 17 22 18 21 48 -52 l30 -73 72 -3 c40 -2 72 -1 72 1 0 3 -25 57 -56
120 l-55 116 45 64 c25 36 46 67 46 71 0 3 -33 6 -74 6 l-75 0 -28 -40 c-15
-22 -31 -40 -35 -40 -5 0 -8 50 -8 110 l0 110 -65 0 c-44 0 -67 -4 -70 -13z"/>
<path d="M2863 2139 c-36 -10 -54 -36 -62 -89 -5 -27 -12 -36 -29 -38 -21 -3
-23 -8 -20 -55 3 -45 6 -52 26 -55 22 -3 22 -6 22 -138 l0 -134 70 0 70 0 0
134 0 135 38 3 37 3 3 53 3 52 -36 0 c-23 0 -38 5 -42 16 -7 19 13 34 45 34
21 0 23 4 20 43 l-3 42 -55 2 c-30 1 -70 -3 -87 -8z"/>
<path d="M1612 1999 c-82 -41 -120 -140 -92 -241 23 -82 90 -130 180 -130 117
0 190 78 190 201 0 50 -26 116 -56 143 -56 50 -152 61 -222 27z m128 -118 c17
-33 12 -99 -10 -121 -11 -11 -24 -20 -28 -20 -41 0 -67 91 -38 135 20 30 61
34 76 6z"/>
<path d="M2046 2010 c-35 -11 -82 -54 -103 -94 -38 -73 -9 -209 55 -255 64
-45 170 -45 233 -1 58 42 88 168 58 247 -33 88 -140 133 -243 103z m104 -129
c17 -34 12 -106 -9 -125 -55 -50 -109 71 -59 131 16 19 56 15 68 -6z"/>
<path d="M3134 2002 c-44 -21 -84 -65 -84 -92 0 -14 13 -19 66 -25 44 -4 70
-3 77 4 24 24 77 6 77 -26 0 -9 -16 -13 -53 -13 -101 0 -161 -33 -173 -97 -8
-45 12 -90 49 -110 42 -21 118 -21 151 0 23 15 26 16 26 2 0 -13 12 -15 68
-13 l67 3 3 135 c3 157 -8 190 -74 224 -55 29 -147 32 -200 8z m136 -236 c0
-20 -28 -46 -49 -46 -28 0 -46 26 -31 45 16 20 80 20 80 1z"/>
<path d="M3822 2004 c-12 -8 -22 -10 -22 -5 0 7 -27 11 -70 11 l-70 0 0 -190
0 -191 68 3 67 3 3 105 c2 93 5 107 23 123 12 9 34 17 50 17 16 0 29 1 29 3 0
1 5 29 10 62 7 45 7 61 -3 67 -20 13 -61 9 -85 -8z"/>
<path d="M3462 1823 l3 -188 68 -3 67 -3 0 191 0 190 -70 0 -70 0 2 -187z"/>
</g>
</svg>
